<svg width="50" height="50" viewBox="0 0 50 50" fill="none" xmlns="http://www.w3.org/2000/svg">
<g clip-path="url(#clip0)">
<path d="M36.3261 19.062C36.7306 19.062 37.0585 18.7341 37.0585 18.3296C37.0585 17.9251 36.7306 17.5972 36.3261 17.5972C35.9216 17.5972 35.5937 17.9251 35.5937 18.3296C35.5937 18.7341 35.9216 19.062 36.3261 19.062Z" fill="#E4032B"/>
<path d="M38.6338 14.2777C38.5002 14.0857 38.2829 13.9691 38.0491 13.9639L32.5864 13.8416C32.5837 13.8416 32.581 13.8417 32.5782 13.8417C32.5657 13.8417 32.5532 13.8422 32.5407 13.8427C32.5284 13.8432 32.5161 13.8434 32.5039 13.8445C32.495 13.8453 32.4862 13.8467 32.4773 13.8479C32.4618 13.8499 32.4464 13.8516 32.4313 13.8545C32.4273 13.8553 32.4234 13.8565 32.4195 13.8574C32.2811 13.8862 32.1536 13.9542 32.0522 14.0558C31.9616 14.1463 31.8999 14.2547 31.8667 14.3697C31.8657 14.373 31.8652 14.3764 31.8643 14.3798C31.8589 14.3996 31.854 14.4193 31.8503 14.4393C31.8489 14.4468 31.8482 14.4543 31.8471 14.4619C31.8447 14.478 31.8421 14.4941 31.8407 14.5103C31.84 14.5196 31.8399 14.529 31.8394 14.5383C31.8387 14.5531 31.8379 14.5678 31.8381 14.5827C31.8381 14.5851 31.8378 14.5876 31.8379 14.5901L31.9604 20.0527C31.966 20.3021 32.0981 20.5315 32.311 20.6614L39.9257 25.3097C40.0143 25.3638 40.1108 25.3971 40.2088 25.4104C40.2415 25.4148 40.2743 25.417 40.3071 25.417C40.4965 25.417 40.684 25.3438 40.8254 25.2025L43.5838 22.4441C43.8345 22.1933 43.8696 21.7989 43.667 21.5078L38.6338 14.2777ZM33.3432 16.3827L34.3345 17.374C34.4776 17.5169 34.6651 17.5885 34.8525 17.5885C35.0399 17.5885 35.2274 17.517 35.3704 17.374C35.6565 17.0879 35.6565 16.6242 35.3704 16.3382L34.379 15.3468L37.6442 15.42L40.5097 19.5365L37.7153 22.2444L33.4157 19.6197L33.3432 16.3827ZM40.1969 23.7591L39.0068 23.0327L41.3577 20.7546L42.1144 21.8417L40.1969 23.7591Z" fill="#E4032B"/>
<path d="M46.6732 6.51113V5.03018C47.6715 4.67451 48.3889 3.71475 48.3889 2.58896C48.3889 1.16133 47.2359 0 45.8186 0C44.6538 0 43.6682 0.784668 43.3536 1.85654H31.5546C31.15 1.85654 30.8222 2.18447 30.8222 2.58896C30.8222 2.99346 31.15 3.32139 31.5546 3.32139H43.3537C43.6114 4.1998 44.3199 4.88477 45.2084 5.10361V6.43789C44.3095 6.65928 43.5949 7.35791 43.3449 8.25117H30.9158C30.6114 7.16338 29.6181 6.36348 28.4421 6.36348C27.0248 6.36348 25.8718 7.5249 25.8718 8.95244C25.8718 10.0647 26.572 11.0153 27.5516 11.3811V44.9826C26.6118 45.3334 25.9293 46.2225 25.8753 47.2762H23.8555C23.8118 46.4233 23.3561 45.6789 22.6858 45.2398V38.0077C22.6858 37.6032 22.358 37.2753 21.9534 37.2753C21.5488 37.2753 21.221 37.6032 21.221 38.0077V44.8238C19.835 44.8602 18.7183 46.0063 18.7183 47.4111C18.7183 48.8387 19.8714 50.0001 21.2886 50.0001C22.2233 50.0001 23.0431 49.4946 23.4929 48.741H26.2376C26.6875 49.4946 27.5071 50.0001 28.4419 50.0001C29.8592 50.0001 31.0122 48.8387 31.0122 47.4111C31.0122 46.1825 30.1577 45.1517 29.0161 44.8881V11.4754C29.9108 11.2688 30.6292 10.5912 30.898 9.71592H43.3622C43.6865 10.7719 44.6649 11.5413 45.8184 11.5413C47.2357 11.5413 48.3887 10.3799 48.3887 8.95234C48.3889 7.82656 47.6715 6.8667 46.6732 6.51113ZM44.7131 2.58896C44.7131 1.96914 45.209 1.46484 45.8186 1.46484C46.4281 1.46484 46.924 1.96904 46.924 2.58896C46.924 3.20889 46.4281 3.71309 45.8186 3.71309C45.209 3.71299 44.7131 3.20879 44.7131 2.58896ZM21.2887 48.5352C20.6791 48.5352 20.1832 48.0309 20.1832 47.411C20.1832 46.7912 20.6791 46.2869 21.2887 46.2869C21.8982 46.2869 22.3941 46.7912 22.3941 47.411C22.3941 48.0309 21.8982 48.5352 21.2887 48.5352ZM29.5476 47.411C29.5476 48.0309 29.0517 48.5352 28.4421 48.5352C27.8325 48.5352 27.3366 48.0309 27.3366 47.411C27.3366 46.7912 27.8325 46.2869 28.4421 46.2869C29.0517 46.2869 29.5476 46.7912 29.5476 47.411ZM28.4421 10.0766C27.8325 10.0766 27.3366 9.57227 27.3366 8.95244C27.3366 8.33262 27.8325 7.82832 28.4421 7.82832C29.0517 7.82832 29.5476 8.33262 29.5476 8.95244C29.5476 9.57227 29.0517 10.0766 28.4421 10.0766ZM45.8186 10.0766C45.209 10.0766 44.7131 9.57227 44.7131 8.95244C44.7131 8.33262 45.209 7.82832 45.8186 7.82832C46.4281 7.82832 46.924 8.33262 46.924 8.95244C46.924 9.57227 46.4281 10.0766 45.8186 10.0766Z" fill="#E4032B"/>
<path d="M18.8325 9.71592C19.1504 10.7512 20.0972 11.5102 21.221 11.5396V35.0779C21.221 35.4824 21.5488 35.8104 21.9534 35.8104C22.358 35.8104 22.6858 35.4824 22.6858 35.0779V11.1237C23.3912 10.6616 23.859 9.86123 23.859 8.95244C23.859 7.5249 22.7059 6.36348 21.2887 6.36348C20.1127 6.36348 19.1193 7.16338 18.8149 8.25117H6.65519C6.42765 7.43809 5.81524 6.78633 5.02911 6.50889V5.03252C5.80519 4.75859 6.41212 4.11992 6.6464 3.32139H28.6249C29.0295 3.32139 29.3573 2.99346 29.3573 2.58896C29.3573 2.18447 29.0295 1.85654 28.6249 1.85654H6.6464C6.33185 0.784668 5.3462 0 4.18146 0C2.76417 0 1.61115 1.16133 1.61115 2.58896C1.61115 3.80225 2.44425 4.82275 3.56427 5.10195V6.43945C2.44425 6.71865 1.61115 7.73916 1.61115 8.95244C1.61115 10.38 2.76427 11.5414 4.18146 11.5414C5.33497 11.5414 6.31329 10.772 6.63761 9.71601H18.8325V9.71592ZM21.2887 7.82832C21.8982 7.82832 22.3941 8.33262 22.3941 8.95244C22.3941 9.57227 21.8982 10.0766 21.2887 10.0766C20.6791 10.0766 20.1832 9.57227 20.1832 8.95244C20.1832 8.33262 20.679 7.82832 21.2887 7.82832ZM3.07599 2.58896C3.07599 1.96914 3.57189 1.46484 4.18146 1.46484C4.79103 1.46484 5.28692 1.96904 5.28692 2.58896C5.28692 3.20889 4.79103 3.71309 4.18146 3.71309C3.57189 3.71299 3.07599 3.20879 3.07599 2.58896ZM4.18146 10.0766C3.57189 10.0766 3.07599 9.57227 3.07599 8.95244C3.07599 8.33262 3.57189 7.82832 4.18146 7.82832C4.79103 7.82832 5.28692 8.33262 5.28692 8.95244C5.28692 9.57227 4.79103 10.0766 4.18146 10.0766Z" fill="#E4032B"/>
</g>
<defs>
<clipPath id="clip0">
<rect width="50" height="50" fill="white"/>
</clipPath>
</defs>
</svg>
