<svg width="40" height="40" viewBox="0 0 40 40" fill="none" xmlns="http://www.w3.org/2000/svg">
<path d="M20 40C31.0457 40 40 31.0457 40 20C40 8.9543 31.0457 0 20 0C8.9543 0 0 8.9543 0 20C0 31.0457 8.9543 40 20 40Z" fill="#039BE5"/>
<path d="M9.15168 19.5665L28.435 12.1315C29.33 11.8082 30.1117 12.3499 29.8217 13.7032L29.8233 13.7015L26.54 29.1699C26.2967 30.2665 25.645 30.5332 24.7333 30.0165L19.7333 26.3315L17.3217 28.6549C17.055 28.9215 16.83 29.1465 16.3133 29.1465L16.6683 24.0582L25.935 15.6865C26.3383 15.3315 25.845 15.1315 25.3133 15.4849L13.8617 22.6949L8.92501 21.1549C7.85334 20.8149 7.83001 20.0832 9.15168 19.5665Z" fill="white"/>
</svg>
