<svg width="40" height="40" viewBox="0 0 40 40" fill="none" xmlns="http://www.w3.org/2000/svg">
<path d="M20.005 0H19.995C8.9675 0 0 8.97 0 20C0 24.375 1.41 28.43 3.8075 31.7225L1.315 39.1525L9.0025 36.695C12.165 38.79 15.9375 40 20.005 40C31.0325 40 40 31.0275 40 20C40 8.9725 31.0325 0 20.005 0Z" fill="#111"/>
<path d="M31.6425 28.2427C31.16 29.6052 29.245 30.7352 27.7175 31.0652C26.6725 31.2877 25.3075 31.4652 20.7125 29.5602C14.835 27.1252 11.05 21.1527 10.755 20.7652C10.4725 20.3777 8.38 17.6027 8.38 14.7327C8.38 11.8627 9.8375 10.4652 10.425 9.86521C10.9075 9.37271 11.705 9.14771 12.47 9.14771C12.7175 9.14771 12.94 9.16021 13.14 9.17021C13.7275 9.19521 14.0225 9.23021 14.41 10.1577C14.8925 11.3202 16.0675 14.1902 16.2075 14.4852C16.35 14.7802 16.4925 15.1802 16.2925 15.5677C16.105 15.9677 15.94 16.1452 15.645 16.4852C15.35 16.8252 15.07 17.0852 14.775 17.4502C14.505 17.7677 14.2 18.1077 14.54 18.6952C14.88 19.2702 16.055 21.1877 17.785 22.7277C20.0175 24.7152 21.8275 25.3502 22.475 25.6202C22.9575 25.8202 23.5325 25.7727 23.885 25.3977C24.3325 24.9152 24.885 24.1152 25.4475 23.3277C25.8475 22.7627 26.3525 22.6927 26.8825 22.8927C27.4225 23.0802 30.28 24.4927 30.8675 24.7852C31.455 25.0802 31.8425 25.2202 31.985 25.4677C32.125 25.7152 32.125 26.8777 31.6425 28.2427Z" fill="#fff"/>
</svg>
