<svg width="40" height="40" viewBox="0 0 40 40" fill="none" xmlns="http://www.w3.org/2000/svg">
<path d="M20 40C31.0457 40 40 31.0457 40 20C40 8.95431 31.0457 0 20 0C8.95431 0 0 8.95431 0 20C0 31.0457 8.95431 40 20 40Z" fill="#111"/>
<path fill-rule="evenodd" clip-rule="evenodd" d="M19.2445 28.7719H20.8143C20.8143 28.7719 21.2885 28.7198 21.5305 28.4588C21.7534 28.2193 21.7462 27.7693 21.7462 27.7693C21.7462 27.7693 21.7156 25.663 22.6931 25.3529C23.6568 25.0473 24.8943 27.3886 26.2059 28.2888C27.1978 28.9701 27.9514 28.8207 27.9514 28.8207L31.4585 28.7719C31.4585 28.7719 33.2932 28.6589 32.4233 27.2164C32.352 27.0984 31.9166 26.1493 29.8157 24.1992C27.6167 22.1581 27.9112 22.4882 30.5601 18.9576C32.1733 16.8075 32.8183 15.4947 32.6168 14.9325C32.4247 14.397 31.2382 14.5386 31.2382 14.5386L27.2894 14.5632C27.2894 14.5632 26.9967 14.5232 26.7796 14.653C26.5674 14.7803 26.4309 15.0769 26.4309 15.0769C26.4309 15.0769 25.8059 16.7408 24.9724 18.1558C23.214 21.1417 22.511 21.2992 22.2236 21.1138C21.5551 20.6817 21.722 19.378 21.722 18.4517C21.722 15.5582 22.1609 14.3517 20.8674 14.0394C20.4382 13.9357 20.1223 13.8672 19.0246 13.8562C17.6156 13.8416 16.423 13.8605 15.7478 14.1913C15.2986 14.4113 14.952 14.9015 15.1631 14.9297C15.4241 14.9646 16.0152 15.089 16.3286 15.5158C16.7332 16.0662 16.719 17.3027 16.719 17.3027C16.719 17.3027 16.9514 20.7088 16.176 21.132C15.6437 21.4222 14.9135 20.8297 13.3459 18.1209C12.5427 16.7333 11.9363 15.1996 11.9363 15.1996C11.9363 15.1996 11.8193 14.9129 11.6108 14.7596C11.3576 14.5739 11.004 14.5147 11.004 14.5147L7.25159 14.5393C7.25159 14.5393 6.68829 14.555 6.48151 14.7999C6.29755 15.0177 6.4669 15.4684 6.4669 15.4684C6.4669 15.4684 9.40461 22.3413 12.7309 25.8049C15.781 28.9804 19.2445 28.7719 19.2445 28.7719Z" fill="#fff"/>
</svg>
