<svg xmlns="http://www.w3.org/2000/svg" id="Capa_1" enable-background="new 0 0 509.19 509.19" height="512" viewBox="0 0 509.19 509.19" width="512" fill="#E4032B"><g><path d="m466.173 390.929h-16.568c5.522-7.597 8.539-18.296 8.663-31.404.174-18.345-5.309-39.724-15.438-60.198s-23.797-37.804-38.484-48.796c-.194-.145-.388-.273-.582-.416.382-2.152.618-4.373.678-6.65.112-4.252-.362-8.135-1.29-11.684 9.921-1.393 21.411-7.308 31.898-17.174 8.2-7.714 14.433-16.707 17.549-25.324 3.734-10.325 2.738-19.256-2.805-25.148-5.542-5.893-14.396-7.431-24.93-4.335-8.791 2.585-18.147 8.257-26.348 15.971-9.759 9.18-16.151 19.431-18.602 28.721-1.762-.968-3.522-1.836-5.243-2.61-15.767-7.095-37.998-11.128-66.073-11.985-14.652-.447-27.461-.052-38.598 1.197-2.477-11.352-7.447-22.921-14.529-33.749-5.61-8.577-12.337-16.287-19.613-22.506.208-.367.423-.719.628-1.094 7.795-14.288 12.428-33.294 13.045-53.516.618-20.222-2.847-39.475-9.756-54.213-7.68-16.382-18.864-25.616-31.494-26.002-17.71-.533-33.623 16.836-41.401 45.355-1.09 3.996 1.266 8.119 5.262 9.209 3.99 1.089 8.12-1.264 9.209-5.262 5.62-20.604 16.087-34.316 26.137-34.316.111 0 .224.002.336.005 6.592.201 13.287 6.534 18.37 17.376 5.928 12.646 8.892 29.475 8.345 47.387-.548 17.913-4.532 34.53-11.221 46.79-5.734 10.512-12.772 16.422-19.396 16.222-1.409-.043-2.829-.36-4.22-.941-.236-.099-.474-.184-.713-.257-1.857-9.499-7.85-18.057-16.845-24.933-3.653-11.364-5.362-24.716-4.938-38.632.127-4.14-3.127-7.599-7.267-7.726-4.172-.117-7.6 3.128-7.726 7.267-.309 10.092.404 19.969 2.071 29.199-11.566-4.572-25.294-7.199-40.162-7.199-38.101 0-68.758 17.199-74.514 40.394h-10.763v-3.649c0-4.142-3.357-7.5-7.5-7.5s-7.5 3.358-7.5 7.5v22.299c0 4.142 3.357 7.5 7.5 7.5s7.5-3.358 7.5-7.5v-3.649h10.557c5.19 23.638 36.14 41.271 74.721 41.271 17.493 0 33.411-3.632 46.079-9.798 2.65 6.811 6.105 13.493 10.321 19.938 8.053 12.314 18.317 22.685 29.224 29.628-.035.509-.063 1.015-.081 1.513-.002.052-.003.104-.004.155-.065 4.235.363 8.265 1.264 12.04-.386.279-.772.539-1.159.829-14.688 10.993-28.355 28.322-38.484 48.796s-15.611 41.853-15.438 60.198c.124 13.108 3.141 23.807 8.663 31.404h-28.913c-10.572 0-19.173 8.601-19.173 19.172v79.917c0 10.572 8.601 19.172 19.173 19.172h330.577c10.571 0 19.172-8.601 19.172-19.172v-79.917c.001-10.569-8.6-19.17-19.171-19.17zm-36.788-84.951c9.105 18.403 14.036 37.37 13.884 53.405-.133 14.013-4.27 24.058-11.35 27.561-7.079 3.503-17.576.695-28.793-7.701-12.839-9.608-24.924-25.035-34.028-43.439-17.408-35.187-18.592-73.021-2.534-80.965 7.076-3.502 17.573-.696 28.794 7.701 12.838 9.608 24.922 25.035 34.027 43.438zm-20.591-119.282c6.423-6.042 13.822-10.6 20.302-12.505 2.313-.68 4.217-.948 5.725-.948 2.1 0 3.436.519 4.047 1.169 1.053 1.118 1.585 4.347-.375 9.768-2.297 6.351-7.298 13.458-13.721 19.5-13.7 12.887-27.259 15.277-30.074 12.284-2.816-2.994.397-16.38 14.096-29.268zm-345.171-38.803c0-16.097 24.311-33.333 60.5-33.333s60.5 17.235 60.5 33.333c0 16.097-24.311 33.333-60.5 33.333s-60.5-17.236-60.5-33.333zm129.453 50.262c-4.2-6.422-7.517-13.082-9.885-19.84 7.516-6.014 12.791-13.243 15.104-21.223 1.704.397 3.431.629 5.169.682.274.008.547.013.82.013 8.157-.001 15.91-3.753 22.683-10.787 5.872 5.166 11.335 11.496 15.952 18.554 5.918 9.048 10.094 18.604 12.239 27.917-4.768 1.033-9.14 2.278-13.132 3.743-15.626 5.732-23.998 14.437-28.29 23.328-7.622-5.678-14.781-13.4-20.66-22.387zm31.583 39.812c.321-8.903 1.511-35.586 83.483-33.078 36.986 1.129 80.814 8.488 81.309 36.943-10.764-4.486-20.926-4.698-29.539-.436-11.157 5.52-17.595 17.783-19.217 33.709-10.111 1.087-21.745 1.448-34.731 1.051-12.729-.388-23.421-1.206-32.615-2.481-1.86-15.689-8.495-27.01-19.148-32.28-8.572-4.24-18.676-4.05-29.38.372-.109-1.232-.179-2.49-.162-3.8zm-39.93 68.011c9.105-18.403 21.188-33.83 34.027-43.438 8.054-6.028 15.734-9.175 22.047-9.175 2.48 0 4.749.486 6.747 1.474 7.079 3.502 11.216 13.548 11.349 27.561.152 16.035-4.778 35.001-13.884 53.405-9.104 18.403-21.188 33.83-34.027 43.439-11.219 8.396-21.713 11.203-28.793 7.701-7.08-3.503-11.217-13.548-11.35-27.561-.152-16.036 4.778-35.002 13.884-53.406zm285.616 184.04c0 2.301-1.871 4.172-4.172 4.172h-330.577c-2.301 0-4.173-1.872-4.173-4.172v-79.917c0-2.3 1.872-4.172 4.173-4.172h154.527c4.143 0 7.5-3.358 7.5-7.5s-3.357-7.5-7.5-7.5h-69.732c14.529-11.007 28.036-28.193 38.069-48.473 8.936-18.063 14.25-36.828 15.259-53.595 9.161 1.163 19.617 1.916 31.786 2.288 3.598.11 7.102.164 10.514.164 8.832 0 17.018-.374 24.501-1.106 1.13 15.935 6.142 34.076 15.132 52.249 10.034 20.28 23.541 37.466 38.07 48.473h-73.6c-4.143 0-7.5 3.358-7.5 7.5s3.357 7.5 7.5 7.5h146.05c2.301 0 4.172 1.872 4.172 4.172v79.917z"/></g></svg>