<svg xmlns="http://www.w3.org/2000/svg" id="Capa_1" enable-background="new 0 0 500.499 500.499" height="512" viewBox="0 0 500.499 500.499" width="512" fill="#E4032B"><g><path d="m480.61 191.971-54.064-21.988c-15.195-6.181-32.477.075-40.194 14.549l-9.034 16.939c-3.885 7.282-4.794 15.669-2.562 23.615l4.354 15.49c.994 3.535 1.347 7.183 1.051 10.843l-2.695 33.358c-.398 4.919-3.903 8.939-8.721 10.002l-130.496 28.788c5.922-13.423 9.004-27.979 9.004-42.854 0-22.532-7.204-44.508-20.41-62.614 22.899-23.522 36.097-55.287 36.439-88.203.355-34.322-12.827-66.776-37.121-91.383-24.283-24.596-56.548-38.189-90.851-38.273-.108 0-.21 0-.317 0-37.436 0-72.898 16.283-97.326 44.702-2.7 3.142-2.343 7.876.798 10.577 3.142 2.7 7.878 2.343 10.577-.799 21.576-25.101 52.89-39.48 85.952-39.48h.28c30.274.075 58.761 12.082 80.213 33.812 21.462 21.74 33.109 50.395 32.795 80.689-.328 31.563-13.314 60.74-36.567 82.156-2.944 2.712-3.241 7.257-.674 10.328 13.679 16.363 21.212 37.134 21.212 58.489 0 17.688-5.07 34.847-14.662 49.621-1.658 2.553-1.607 5.854.126 8.356s4.807 3.708 7.78 3.052l146.479-32.315c11.293-2.492 19.508-11.911 20.44-23.44l2.695-33.358c.44-5.437-.085-10.857-1.561-16.11l-4.354-15.49c-1.183-4.205-.701-8.643 1.354-12.498l9.035-16.939c4.092-7.674 13.249-10.99 21.309-7.713l54.064 21.988c8.454 3.438 12.62 12.846 9.484 21.416-.151.413-.266.837-.342 1.27l-4.503 25.443c-3.431 19.383-10.061 37.913-19.704 55.076-9.612 17.104-21.944 32.359-36.653 45.341l-4.678 4.128c-13.314 11.75-27.449 22.796-42.012 32.829-3.411 2.35-4.272 7.02-1.921 10.431 1.454 2.112 3.799 3.246 6.183 3.246 1.467 0 2.949-.429 4.248-1.324 15.055-10.372 29.666-21.789 43.428-33.935l4.678-4.128c15.974-14.098 29.365-30.664 39.804-49.239 10.474-18.638 17.673-38.761 21.397-59.81l4.396-24.835c5.477-16.017-2.396-33.398-18.153-39.806z"/><path d="m350.358 408.085c-3.849 2.268-7.783 4.507-11.693 6.654-43.327 23.781-88.763 44.628-135.047 61.963l-14.942 5.596c-15.501 5.805-33.014 2.967-45.704-7.405-36.296-29.667-65.39-65.061-86.472-105.199-17.31-32.954-29.384-69.36-35.887-108.207-11.499-68.685-2.311-125.341.779-141.071.571-2.907 1.11-5.993 1.698-9.711 1.756-11.116 5.159-21.876 10.112-31.979 1.823-3.719.287-8.212-3.433-10.036-3.721-1.823-8.213-.287-10.036 3.433-5.614 11.451-9.47 23.645-11.46 36.242-.558 3.53-1.066 6.442-1.601 9.162-3.212 16.356-12.77 75.256-.853 146.438 6.767 40.42 19.351 78.339 37.401 112.706 22.025 41.933 52.393 78.888 90.259 109.838 11.048 9.03 24.839 13.754 38.812 13.753 7.288 0 14.626-1.285 21.646-3.915l14.942-5.596c46.954-17.586 93.049-38.735 137.004-62.861 4.045-2.221 8.113-4.536 12.093-6.882 3.568-2.104 4.756-6.701 2.652-10.27-2.105-3.57-6.703-4.756-10.27-2.653z"/><path d="m153.001 177.603c-1.17 0-2.342.051-3.51.131v-8.679h4.735c9.41 0 17.065-7.655 17.065-17.065v-8.464c0-9.41-7.655-17.065-17.065-17.065h-5.167v-22.333c0-13.955-11.353-25.307-25.307-25.307-13.955 0-25.307 11.353-25.307 25.307v22.333h-5.166c-9.41 0-17.065 7.655-17.065 17.065v8.464c0 9.41 7.655 17.065 17.065 17.065h4.735v8.678c-1.169-.08-2.342-.13-3.51-.13-28.193 0-51.13 22.937-51.13 51.13 0 7.81 1.717 15.309 5.103 22.289 6.256 12.898 26.673 37.582 49.537 56.438v28.21c0 .985.194 1.961.572 2.872l18.238 44c1.161 2.801 3.896 4.628 6.928 4.628s5.767-1.827 6.928-4.628l18.238-44c.377-.911.572-1.887.572-2.872v-29.75c21.901-18.964 44.205-43.302 49.97-55.813 3.099-6.727 4.671-13.919 4.671-21.376 0-28.191-22.937-51.128-51.13-51.128zm-39.556-73.474c0-5.684 4.624-10.307 10.307-10.307 5.684 0 10.307 4.624 10.307 10.307v22.333h-20.614zm-20.166 49.926c-1.139 0-2.065-.926-2.065-2.065v-8.464c0-1.139.926-2.065 2.065-2.065h60.947c1.139 0 2.065.926 2.065 2.065v8.464c0 1.139-.926 2.065-2.065 2.065zm41.212 15v33.022c-3.405-1.124-7.011-1.742-10.72-1.742-3.71 0-7.332.63-10.757 1.772v-33.053h21.477zm0 165.123-10.738 25.906-10.738-25.906v-15.523c2.334 1.55 4.666 3.015 6.987 4.356 1.163.672 2.459 1.005 3.751 1.005 1.471 0 2.939-.433 4.206-1.29 2.112-1.43 4.3-3.001 6.533-4.669v16.121zm51.346-90.346c-3.833 8.319-19.119 25.809-36.346 41.936 0 0-22.452 19.21-26.034 21.799-3.487-2.214-6.983-4.685-10.443-7.334 0 0-32.609-26.244-51.041-55.756-2.898-4.641-3.599-10.22-3.599-15.743 0-19.922 16.208-36.13 36.13-36.13 1.171 0 2.345.072 3.51.184v19.25c-2.079 2.363-3.852 5.025-5.23 7.944-1.768 3.746-.165 8.216 3.581 9.984 3.744 1.765 8.216.164 9.984-3.582 3.167-6.711 10.006-11.047 17.421-11.047 7.641 0 14.564 4.522 17.637 11.521 1.234 2.812 3.985 4.487 6.871 4.487 1.007 0 2.03-.204 3.011-.635 3.793-1.665 5.518-6.089 3.853-9.882-1.439-3.278-3.364-6.241-5.651-8.841v-19.208c1.165-.112 2.338-.175 3.51-.175 19.922 0 36.13 16.208 36.13 36.13 0 5.273-1.108 10.353-3.294 15.098z"/></g></svg>