<svg width="25" height="25" viewBox="0 0 25 25" fill="none" xmlns="http://www.w3.org/2000/svg">
<path fill-rule="evenodd" clip-rule="evenodd" d="M20.7905 4.17509C18.5979 1.97983 15.6818 0.77033 12.5751 0.769043C6.17357 0.769043 0.96364 5.97882 0.961065 12.3821C0.960207 14.429 1.49493 16.4271 2.51131 18.1884L0.863647 24.2065L7.02043 22.5915C8.71688 23.5169 10.6268 24.0046 12.5704 24.0051H12.5753C18.9761 24.0051 24.1866 18.7949 24.189 12.3914C24.1903 9.28802 22.9834 6.37021 20.7905 4.17509ZM12.5751 22.0437H12.5711C10.839 22.043 9.14031 21.5775 7.65801 20.6982L7.30567 20.4889L3.65215 21.4474L4.62733 17.8853L4.39773 17.52C3.43142 15.9831 2.92115 14.2067 2.92201 12.3828C2.92401 7.06057 7.25446 2.73056 12.579 2.73056C15.1573 2.73142 17.581 3.73678 19.4035 5.5614C21.226 7.38602 22.2291 9.8113 22.2282 12.3907C22.2259 17.7133 17.8958 22.0437 12.5751 22.0437ZM17.87 14.8141C17.5799 14.6687 16.1531 13.9669 15.887 13.87C15.6212 13.7731 15.4276 13.7249 15.2343 14.0153C15.0407 14.3057 14.4847 14.9594 14.3153 15.153C14.146 15.3467 13.9769 15.371 13.6866 15.2256C13.3964 15.0804 12.4614 14.7739 11.3529 13.7853C10.4903 13.0158 9.90792 12.0655 9.73855 11.7751C9.56946 11.4844 9.73712 11.3425 9.86586 11.1829C10.18 10.7928 10.4946 10.3838 10.5913 10.1902C10.6881 9.99656 10.6396 9.82704 10.567 9.68184C10.4946 9.53665 9.91421 8.10828 9.67246 7.52706C9.43671 6.96144 9.19767 7.03783 9.01943 7.02896C8.85034 7.02052 8.65679 7.0188 8.46324 7.0188C8.26984 7.0188 7.95541 7.09133 7.68934 7.38201C7.42341 7.67255 6.67382 8.3745 6.67382 9.80286C6.67382 11.2312 7.71366 12.6111 7.85871 12.8048C8.00376 12.9985 9.90506 15.9296 12.816 17.1864C13.5084 17.4857 14.0488 17.6641 14.4704 17.7978C15.1656 18.0187 15.7981 17.9875 16.2982 17.9129C16.8558 17.8295 18.0149 17.2108 18.257 16.533C18.4987 15.8551 18.4987 15.2741 18.4261 15.153C18.3537 15.032 18.1601 14.9594 17.87 14.8141Z" fill="#E4032B"/>
</svg>
